<?xml version="1.0" standalone="no"?><!DOCTYPE svg PUBLIC "-//W3C//DTD SVG 1.1//EN" "http://www.w3.org/Graphics/SVG/1.1/DTD/svg11.dtd"><svg t="1777894925315" class="icon" viewBox="0 0 1024 1024" version="1.1" xmlns="http://www.w3.org/2000/svg" p-id="6372" xmlns:xlink="http://www.w3.org/1999/xlink" width="200" height="200"><path d="M250.557117 728.700541V316.886486c1.476036-1.845045 3.597838-3.505586 4.151351-5.627387 5.166126-16.974414 17.527928-23.616577 31.365766-28.413694 2.306306-0.738018 4.428108-2.121802 6.734415-3.228828H764.771171c2.306306 1.014775 4.428108 2.398559 6.826667 3.044324 19.280721 4.981622 35.793874 23.708829 35.609369 50.36973-0.738018 126.754595-0.276757 253.509189-0.276757 380.263783 0 3.413333 0.738018 7.195676-0.276756 10.147748-3.044324 8.025946-5.535135 16.882162-10.516757 23.155315-11.992793 15.037117-28.413694 19.372973-45.941622 19.372973-146.404324 0-292.808649-0.184505-439.212973 0.184505-26.753153 0-48.801441-7.564685-60.425225-37.454414z m278.878559-409.969009H307.938018c-11.808288 0-11.992793 0.184505-11.992793 13.007567v382.016577c0 12.730811 0.276757 13.007568 11.254775 13.007567h443.087568c10.978018 0 11.254775-0.369009 11.254774-13.007567V331.739099c0-12.823063-0.184505-13.007568-11.992792-13.007567H529.527928z" fill="#BFBFBF" p-id="6373"></path><path d="M482.11027 636.632793c-8.671712-0.922523-16.697658-3.597838-20.664504-12.177298-3.874595-8.394955-0.553514-16.144144 3.966847-24.077837 7.933694-13.745586 14.391351-28.413694 21.587027-42.712793 10.793514-21.587027 21.771532-42.98955 32.472792-64.484324 7.841441-15.775135 15.498378-31.642523 23.247568-47.417658 4.52036-9.225225 9.040721-18.542703 13.93009-27.491171 5.811892-10.424505 23.33982-12.361802 34.041081-4.151352 8.487207 6.457658 8.487207 16.513153 1.568288 29.336217-8.302703 15.498378-15.590631 31.55027-23.524324 47.325405-7.749189 15.313874-15.95964 30.443243-23.708829 45.849369-5.350631 10.609009-10.332252 21.402523-15.59063 32.103784-6.273153 12.454054-12.730811 24.908108-19.096217 37.26991-2.675315 5.258378-5.811892 10.424505-7.841441 15.95964-3.874595 10.701261-11.716036 13.376577-20.387748 14.575856z m176.294054-113.009009c-10.701261-9.317477-20.941261-18.081441-30.996756-26.937658-8.025946-7.011171-16.328649-13.653333-23.801082-21.31027-9.225225-9.40973-8.394955-19.280721 1.383784-27.306667 8.856216-7.287928 22.786306-6.273153 31.550271 1.383784 21.587027 19.188468 43.358559 38.007928 65.13009 57.011892 2.952072 2.583063 5.996396 5.073874 8.487207 8.118198 4.428108 5.350631 3.69009 14.391351-1.752793 19.280721-17.804685 15.95964-35.886126 31.734775-53.783063 47.602162-5.811892 5.166126-11.808288 10.147748-17.527928 15.590631-11.439279 11.162523-28.69045 9.317477-37.731171-4.335856-4.52036-6.826667-1.568288-16.420901 6.734414-23.524325 17.251171-14.852613 34.41009-29.981982 52.307027-45.572612z m-259.136576-0.092252c17.527928 15.590631 33.856577 30.443243 50.554234 44.742342 6.457658 5.535135 12.823063 11.254775 10.055495 21.125766-2.583063 9.040721-10.332252 13.468829-17.989189 14.114594-6.273153 0.553514-14.206847-0.645766-19.096216-4.704865-23.432072-19.280721-46.126126-39.483964-68.727928-59.963964-4.059099-3.69009-7.656937-10.332252-8.025946-15.867387-0.276757-4.52036 3.782342-10.701261 7.38018-14.114595 22.786306-20.664505 45.849369-40.867748 69.096937-60.794234 10.978018-9.40973 27.122162-6.180901 35.517117 6.180901 4.612613 6.826667 1.752793 16.420901-6.642162 23.524324-17.158919 14.944865-34.225586 30.074234-52.122522 45.572613z" fill="#BFBFBF" p-id="6374"></path></svg>