<?xml version="1.0" standalone="no"?><!DOCTYPE svg PUBLIC "-//W3C//DTD SVG 1.1//EN" "http://www.w3.org/Graphics/SVG/1.1/DTD/svg11.dtd"><svg t="1777894712671" class="icon" viewBox="0 0 1024 1024" version="1.1" xmlns="http://www.w3.org/2000/svg" p-id="6112" xmlns:xlink="http://www.w3.org/1999/xlink" width="200" height="200"><path d="M896 836.48V296c0-23.36-14.72-42.88-32-42.88H448c-8.32 0-16.32-3.2-22.4-8.96L338.88 160H160c-17.28 0-32 19.52-32 42.56v633.92c0 23.072 14.72 42.56 32 42.56h704c17.28 0 32-19.488 32-42.56zM864 189.12c52.8 0 96 48 96 106.88v540.48c0 58.88-43.2 106.56-96 106.56H160c-52.8 0-96-47.68-96-106.56V202.56C64 143.68 107.2 96 160 96h192c8.32 0 16.32 3.2 22.4 8.96l86.72 84.16H864z m-236.48 321.6c17.6 0 32 14.08 32 32 0 17.6-14.4 32-32 32h-84.8v84.8c0 17.6-14.4 32-32 32-17.92 0-32-14.4-32-32v-84.8H393.6c-17.6 0-32-14.4-32-32 0-17.92 14.4-32 32-32h85.12V425.6c0-17.6 14.08-32 32-32 17.6 0 32 14.4 32 32v85.12h84.8z" fill="#404853" p-id="6113"></path></svg>