<?xml version="1.0" standalone="no"?><!DOCTYPE svg PUBLIC "-//W3C//DTD SVG 1.1//EN" "http://www.w3.org/Graphics/SVG/1.1/DTD/svg11.dtd"><svg t="1777894861787" class="icon" viewBox="0 0 1024 1024" version="1.1" xmlns="http://www.w3.org/2000/svg" p-id="4402" xmlns:xlink="http://www.w3.org/1999/xlink" width="200" height="200"><path d="M672.256 298.496H351.744c-29.184 0-52.224 23.552-52.224 52.224V670.72c0 29.184 23.552 52.224 52.224 52.224h320c29.184 0 52.224-23.552 52.224-52.224V351.232c0.512-29.184-23.04-52.736-51.712-52.736z m-11.776 360.96H363.52v-296.96h296.96v296.96z" fill="#303742" p-id="4403"></path><path d="M1008.64 357.376V293.376h-82.432V189.44c0-50.688-40.96-91.648-91.648-91.648h-101.376v-81.92h-64v81.92h-121.856v-81.92H483.328v81.92H361.472v-81.92H297.472v81.92H185.856c-50.688 0-91.648 40.96-91.648 91.648v103.936h-81.92v64h81.92v121.856h-81.92v64h81.92V665.6h-81.92v64h81.92v109.056c0 50.688 40.96 91.648 91.648 91.648h111.616v81.92h64v-81.92h121.856v81.92h64v-81.92h121.856v81.92h64v-81.92H834.56c50.688 0 91.648-40.96 91.648-91.648v-109.056H1008.64V665.6h-82.432v-121.856H1008.64V479.232h-82.432V357.376H1008.64z m-146.432 480.768c0 15.36-12.288 27.648-27.648 27.648H185.856c-15.36 0-27.648-12.288-27.648-27.648V189.44c0-15.36 12.288-27.648 27.648-27.648H834.56c15.36 0 27.648 12.288 27.648 27.648v648.704z" fill="#303742" p-id="4404"></path><path d="M413.184 411.136h65.024V476.16H413.184z" fill="#303742" p-id="4405"></path></svg>