<?xml version="1.0" standalone="no"?><!DOCTYPE svg PUBLIC "-//W3C//DTD SVG 1.1//EN" "http://www.w3.org/Graphics/SVG/1.1/DTD/svg11.dtd"><svg t="1777894832290" class="icon" viewBox="0 0 1024 1024" version="1.1" xmlns="http://www.w3.org/2000/svg" p-id="3311" xmlns:xlink="http://www.w3.org/1999/xlink" width="200" height="200"><path d="M256 0H85.333333a85.333333 85.333333 0 0 0-85.333333 85.333333v853.333334a85.333333 85.333333 0 0 0 85.333333 85.333333h170.666667a85.333333 85.333333 0 0 0 85.333333-85.333333V85.333333a85.333333 85.333333 0 0 0-85.333333-85.333333z m0 170.666667H170.666667v42.666666h85.333333v85.333334H213.333333v42.666666h42.666667v85.333334H213.333333v42.666666h42.666667v85.333334H170.666667v42.666666h85.333333v85.333334H213.333333v42.666666h42.666667v85.333334H213.333333v42.666666h42.666667v85.333334H85.333333V85.333333h170.666667v85.333334zM448 128h554.666667a21.333333 21.333333 0 0 0 0-42.666667h-554.666667a21.333333 21.333333 0 0 0 0 42.666667zM1002.666667 896h-554.666667a21.333333 21.333333 0 0 0 0 42.666667h554.666667a21.333333 21.333333 0 0 0 0-42.666667zM847.488 334.634667l30.208-30.165334-30.208-30.208-90.496-90.496a42.624 42.624 0 0 0-60.330667 0l-90.496 90.496-30.165333 30.208 30.165333 30.165334L704 236.757333v551.338667l-97.834667-97.877333-30.165333 30.250666 30.165333 30.165334 90.496 90.496a42.624 42.624 0 0 0 60.330667 0l90.496-90.496 30.208-30.165334-30.208-30.208-100.821333 100.864V233.770667l100.821333 100.864z m-120.661333 476.330666L726.528 810.666667h0.597333l-0.298666 0.298666z" fill="" p-id="3312"></path></svg>