<?xml version="1.0" standalone="no"?><!DOCTYPE svg PUBLIC "-//W3C//DTD SVG 1.1//EN" "http://www.w3.org/Graphics/SVG/1.1/DTD/svg11.dtd"><svg t="1777894770617" class="icon" viewBox="0 0 1024 1024" version="1.1" xmlns="http://www.w3.org/2000/svg" p-id="8060" xmlns:xlink="http://www.w3.org/1999/xlink" width="200" height="200"><path d="M731.733333 859.733333L823.04 768H200.96l91.306667 91.733333c8.533333 8.106667 8.533333 21.76 0 29.866667-8.106667 8.533333-21.76 8.533333-29.866667 0l-128-128c-8.533333-8.106667-8.533333-21.76 0-29.866667l128-128c8.106667-8.533333 21.76-8.533333 29.866667 0 8.533333 8.106667 8.533333 21.76 0 29.866667L200.96 725.333333h622.08l-91.306667-91.733333c-8.533333-8.106667-8.533333-21.76 0-29.866667 8.106667-8.533333 21.76-8.533333 29.866667 0l128 128c8.533333 8.106667 8.533333 21.76 0 29.866667l-128 128c-8.106667 8.533333-21.76 8.533333-29.866667 0-8.533333-8.106667-8.533333-21.76 0-29.866667zM128 234.666667A106.666667 106.666667 0 0 1 234.666667 128h554.666666A106.666667 106.666667 0 0 1 896 234.666667v128a106.666667 106.666667 0 0 1-106.666667 106.666666h-554.666666A106.666667 106.666667 0 0 1 128 362.666667z m42.666667 128c0 35.413333 28.586667 64 64 64h554.666666c35.413333 0 64-28.586667 64-64v-128c0-35.413333-28.586667-64-64-64h-554.666666C199.253333 170.666667 170.666667 199.253333 170.666667 234.666667z" fill="#000000" p-id="8061"></path></svg>